<?xml version="1.0" encoding="utf-8"?>
<!-- Uploaded to: SVG Repo, www.svgrepo.com, Generator: SVG Repo Mixer Tools -->
<svg width="800px" height="800px" viewBox="0 0 1024 1024" class="icon"  version="1.1" xmlns="http://www.w3.org/2000/svg"><path d="M191.880075 447.272455v63.960025c0 160.347783 90.919176 299.204997 223.860087 368.569644v47.170518h383.76015v-47.170518c132.940912-69.364647 223.860087-208.253841 223.860088-368.569644v-63.960025H191.880075z" fill="#EF4D4D" /><path d="M255.8401 1022.91268h703.560275a63.960025 63.960025 0 0 0 63.960025-63.960025H191.880075a63.960025 63.960025 0 0 0 63.960025 63.960025z" fill="#434854" /><path d="M238.187133 701.673454c-4.765022 0.44772-9.434104 1.439101-14.327046 1.439101a159.900062 159.900062 0 0 1-159.900062-159.900063 31.980012 31.980012 0 0 1 31.980012-31.980012h95.940038v-63.960025H95.940037a95.940037 95.940037 0 0 0-95.940037 95.940037 223.860087 223.860087 0 0 0 223.860087 223.860088c17.844847 0 35.114054-2.302561 51.711681-6.236103a421.272705 421.272705 0 0 1-37.384635-59.163023z" fill="#EF4D4D" /><path d="M159.900062 447.272455h31.980013v63.960025H159.900062zM608.291818 863.012617c-157.565522 0-296.966396-76.33629-384.431731-193.638976 4.541162 11.033104 9.594004 21.810369 15.030606 32.331793-0.28782 0-0.67158 0.06396-0.67158-0.03198-4.797002 0.44772-9.466084 1.439101-14.359026 1.439101-7.323423 0-14.263086-1.18326-21.330668-2.142661 10.681324 22.801749 22.993629 44.644097 37.192755 65.111305a231.66321 231.66321 0 0 0 35.849594-5.244722c-0.06396-0.09594 0.1599-0.1599 0.51168-0.22386a418.330543 418.330543 0 0 0 140.328295 119.189507v47.202498h383.76015V879.770144a417.243223 417.243223 0 0 0 192.551655-210.396503c-87.465334 117.302686-226.898189 193.638976-384.43173 193.638976z" fill="" /><path d="M831.480325 447.272455h31.980012v159.900062h-31.980012z" fill="#EAEAEA" /><path d="M767.5203 671.132542l63.960025-63.960025h31.980012l63.960025 63.960025v191.880075h-159.900062z" fill="#434854" /><path d="M895.44035 831.032605h-95.940038v-143.910057l31.948033-31.980012H863.460337l31.980013 31.980012z" fill="#EACA44" /><path d="M607.620237 31.948032a31.980012 31.980012 0 1 0-63.960025 0c0 56.476702 27.470831 95.940037 27.470831 95.940038S607.620237 179.37589 607.620237 223.828107c0 44.963898-21.458588 78.223111-21.458588 78.223111-13.527545 17.716927-13.239725 28.238351-0.89544 40.902436 14.359026 14.774766 36.840974 9.785884 51.32792-13.719425 0 0 34.986134-49.473079 34.986133-105.438102 0-49.473079-31.980012-95.940037-31.980012-95.940037s-31.980012-47.938039-31.980013-95.908058zM415.740162 31.948032a31.980012 31.980012 0 1 0-63.960025 0c0 56.476702 27.470831 95.940037 27.470831 95.940038S415.740162 179.37589 415.740162 223.828107c0 44.963898-21.458588 78.223111-21.458588 78.223111-13.527545 17.716927-13.239725 28.238351-0.89544 40.902436 14.359026 14.774766 36.840974 9.785884 51.32792-13.719425 0 0 34.986134-49.473079 34.986133-105.438102 0-49.473079-31.980012-95.940037-31.980012-95.940037s-31.980012-47.938039-31.980013-95.908058zM831.480325 127.88807s-31.980012-47.970019-31.980013-95.940038a31.980012 31.980012 0 1 0-63.960025 0c0 56.476702 27.470831 95.940037 27.470831 95.940038S799.500312 179.37589 799.500312 223.828107c0 44.963898-21.458588 78.223111-21.458588 78.223111-13.527545 17.716927-13.239725 28.238351-0.89544 40.902436 14.359026 14.774766 36.840974 9.785884 51.32792-13.719425 0 0 34.986134-49.473079 34.986133-105.438102 0-49.409119-31.980012-95.908057-31.980012-95.908057z" fill="#EAEAEA" /></svg>